# xmcd
#
# Track frame offsets:
#	150
#	16342
#	29007
#	41900
#	56872
#	96767
#	128512
#	145142
#	169377
#	192470
#	208437
#	229520
#	246545
#	263195
#	281730
#	295337
#	312497
#	329800
#
# Disc length: 4707 seconds
#
# Revision: 3
# Processed by: cddbd v1.5.2PL0 Copyright (c) Steve Scherf et al.
# Submitted via: audiograbber 1.83.01
#
DISCID=2c126112
DTITLE=Inga Rumpf - The Best Of All My Years....So Far [CD 1)
DYEAR=1997
DGENRE=Rock
TTITLE0=City Preachers - Pure Religion
TTITLE1=Inga and John - Bonnie and Clyde
TTITLE2=Inga Rumpf - Silver Moon (Time Of The Season)
TTITLE3=Frumpy - Indian Rope Man
TTITLE4=Frumpy - How The Gypsy Was Born
TTITLE5=Frumpy - Singin' Songs
TTITLE6=Atlantis - Rock 'n' Roll Preacher
TTITLE7=Atlantis - Get Up
TTITLE8=Atlantis - Drifting Winds
TTITLE9=Atlantis - Smiling People
TTITLE10=Atlantis - Friends [edit]
TTITLE11=Atlantis - Get On Board
TTITLE12=Inga Rumpf - Amerika
TTITLE13=Inga Rumpf - There's Always One Who Loves You
TTITLE14=Inga Rumpf - This Night
TTITLE15=Inga Rumpf - Grade B-Movie (Don't Stop Johnny)
TTITLE16=Inga Rumpf - I Know Who I Am
TTITLE17=Inga Rumpf - Stardust '69
EXTD=
EXTT0=
EXTT1=
EXTT2=
EXTT3=
EXTT4=
EXTT5=
EXTT6=
EXTT7=
EXTT8=
EXTT9=
EXTT10=
EXTT11=
EXTT12=
EXTT13=
EXTT14=
EXTT15=
EXTT16=
EXTT17=
PLAYORDER=
